<?xml version="1.0" encoding="utf-8"?>
<svg xmlns="http://www.w3.org/2000/svg" viewBox="0 0 500 500">
  <path d="M 493.114 169.166 C 483.609 236.305 452.899 297.737 409.356 349.581 C 362.267 405.645 260.989 475.946 185.725 472.471 C 136.603 473.363 89.251 454.137 54.654 419.254 C 20.053 384.368 1.213 336.861 2.499 287.744 C 2.524 228.987 30.258 173.685 77.332 138.525 C 108.533 115.547 146.239 103.1 184.987 102.984 L 242.9 102.984 C 288.642 102.951 332.262 83.69 363.102 49.909 C 363.425 49.551 363.854 49.307 364.325 49.211 C 365.292 49.002 366.282 49.434 366.785 50.285 C 367.033 50.7 367.145 51.182 367.105 51.667 C 364.65 77.698 355.984 102.759 341.836 124.746 C 341.407 125.527 341.48 126.487 342.022 127.192 C 342.562 127.899 343.464 128.219 344.328 128.013 C 398.542 115.766 443.722 78.507 466.069 27.618 C 466.349 27.169 466.735 26.797 467.194 26.533 C 468.134 26.004 469.281 26.004 470.22 26.533 C 470.68 26.795 471.067 27.167 471.344 27.618 C 494.041 71.099 500.227 118.917 493.114 169.166 Z" fill="#702af7" style="stroke-width: 1;"/>
  <rect width="283.457" height="329.634" fill="none" x="79.923" y="122.085" style="stroke-width: 1; visibility: hidden;"/>
  <g id="lucide-logo" style="" transform="matrix(13.53901, 0, 0, 13.53901, -2205.958008, -2942.726807)">
    <path d="M 180.75 238.097 C 180.75 235.888 178.959 234.097 176.75 234.097 C 174.541 234.097 172.75 235.888 172.75 238.097 C 172.75 242.516 176.332 246.097 180.75 246.097 C 185.168 246.097 188.75 242.516 188.75 238.097 C 188.75 234.543 187.205 231.35 184.75 229.153" stroke="#fff" style="stroke-width: 1; fill: rgba(0, 0, 0, 0);"/>
    <path d="M 176.75 238.097 C 176.75 240.306 178.541 242.097 180.75 242.097 C 182.959 242.097 184.75 240.306 184.75 238.097 C 184.75 233.679 181.168 230.097 176.75 230.097 C 172.332 230.097 168.75 233.679 168.75 238.097 C 168.75 241.681 170.321 244.898 172.813 247.097" stroke="#F56565" style="stroke-width: 1; fill: rgba(0, 0, 0, 0);"/>
  </g>
</svg>